# xmcd CD database file
#
# Track frame offsets:
#	150
#	20149
#	36353
#	51783
#	69373
#	86719
#	103974
#	118875
#	132048
#	143926
#	158708
#	172982
#	186566
#	202414
#	215991
#	233365
#	249673
#
# Disc length: 3505 seconds
#
# Revision: 0
# Processed by: cddbd v1.4PL0 Copyright (c) Steve Scherf et al.
# Submitted via: Feurio! 1.66 - http://www.feurio.com
#
DISCID=080daf11
DTITLE=Johnny Cash - American IV: The Man Comes Around
DYEAR=1900
DGENRE=Country
TTITLE0=The Man Comes Around
TTITLE1=Hurt (Nine Inch Nails)
TTITLE2=Give My Love To Rose
TTITLE3=Bridge Over Troubled Water (Simon and Garfunkel)
TTITLE4=I Hung My Head (Sting)
TTITLE5=First Time Ever I Saw Your Face (Evan MacColl)
TTITLE6=Personal Jesus (Depeche Mode)
TTITLE7=In My Life (The Beatles)
TTITLE8=Sam Hall
TTITLE9=Danny Boy
TTITLE10=Desperado (The Eagles)
TTITLE11=I'm So Lonesome I Could Cry (Hank Williams)
TTITLE12=Streets Of Laredo
TTITLE13=Wichita Lineman (Jimmy Webb)
TTITLE14=Big Iron (Marty Robbins)
TTITLE15=Tear Stained Letter
TTITLE16=We'll Meet Again
EXTD=
EXTT0=
EXTT1=
EXTT2=
EXTT3=
EXTT4=
EXTT5=
EXTT6=
EXTT7=
EXTT8=
EXTT9=
EXTT10=
EXTT11=
EXTT12=
EXTT13=
EXTT14=
EXTT15=
EXTT16=
PLAYORDER=
